Storyline
An aspiring teen detective stumbles into her first real case, when investigating the mysterious new family in her neighborhood.

iMDB:  http://www.imdb.com/title/tt1470022/
General
Complete name : Elfie Hopkins 2012 BRRip x264 AAC-UNiQUE.mp4
Format : MPEG-4
Format profile : Base Media
Codec ID : isom
File size : 1.02 GiB
Duration : 1h 29mn
Overall bit rate mode : Variable
Overall bit rate : 1 629 Kbps
Encoded date : UTC 2012-08-14 23:42:38

Video
ID : 1
Format : AVC
Format/Info : Advanced Video Codec
Format profile : High@L4.1
Format settings, CABAC : Yes
Format settings, ReFrames : 3 frames
Codec ID : avc1
Codec ID/Info : Advanced Video Coding
Duration : 1h 29mn
Bit rate mode : Variable
Bit rate : 1 311 Kbps
Maximum bit rate : 40.0 Mbps
Width : 720 pixels
Height : 304 pixels
Display aspect ratio : 2.35:1
Frame rate mode : Constant
Frame rate : 24.000 fps
Color space : YUV
Chroma subsampling : 4:2:0
Bit depth : 8 bits
Scan type : Progressive
Bits/(Pixel*Frame) : 0.250
Stream size : 836 MiB (80%)
Writing library : x264 core 125 r2208 d9d2288

Audio
ID : 2
Format : AAC
Format/Info : Advanced Audio Codec
Format profile : LC
Codec ID : 40
Duration : 1h 29mn
Bit rate mode : Variable
Bit rate : 314 Kbps
Maximum bit rate : 402 Kbps
Channel(s) : 6 channels
Channel positions : Front: L C R, Side: L R, LFE
Sampling rate : 48.0 KHz
Compression mode : Lossy
Stream size : 201 MiB (19%)
Language : English
Encoded date : UTC 2012-08-14 23:43:02

Source : 720p.BluRay.x264-SONiDO - Thanks!
 
http://i.imgur.com/dqYng.png 
http://i.imgur.com/BGVHx.png 
http://i.imgur.com/dkWPv.png